<mxfile host="app.diagrams.net" modified="2020-09-07T13:17:32.282Z" agent="5.0 (Windows NT 10.0; Win64; x64) AppleWebKit/537.36 (KHTML, like Gecko) Chrome/85.0.4183.83 Safari/537.36" etag="Syl2ePO6owGhDut4rIsV" version="13.6.6" type="github">
  <diagram id="2XL2SL_3dRggOfJ1xJ9r" name="Page-1">
    <mxGraphModel dx="4749" dy="2177" grid="1" gridSize="10" guides="1" tooltips="1" connect="1" arrows="1" fold="1" page="1" pageScale="1" pageWidth="827" pageHeight="1169" math="0" shadow="0">
      <root>
        <mxCell id="0" />
        <mxCell id="1" parent="0" />
        <mxCell id="WS7IrizcKd0_ZpTfdwMH-1" value="&lt;font color=&quot;#ffffff&quot; style=&quot;font-size: 26px&quot;&gt;Insider&lt;br&gt;Attacker&lt;br&gt;&lt;/font&gt;" style="ellipse;whiteSpace=wrap;html=1;aspect=fixed;strokeColor=#D70000;strokeWidth=4;fillColor=#D70000;gradientColor=none;" parent="1" vertex="1">
          <mxGeometry x="1171" y="130" width="140" height="140" as="geometry" />
        </mxCell>
        <mxCell id="WS7IrizcKd0_ZpTfdwMH-3" value="&lt;font color=&quot;#ffffff&quot; style=&quot;font-size: 23px&quot;&gt;Violation of confidentiality&lt;/font&gt;&lt;span style=&quot;font-family: monospace ; font-size: 0px&quot;&gt;3CmxGraphModel%3E%3Croot%3E%3CmxCell%20id%3D%220%22%2F%3E%3CmxCell%20id%3D%221%22%20parent%3D%220%22%2F%3E%3CmxCell%20id%3D%222%22%20value%3D%22%26lt%3Bfont%20color%3D%26quot%3B%23ffffff%26quot%3B%20style%3D%26quot%3Bfont-size%3A%2023px%26quot%3B%26gt%3BViolation%20of%20availability%26lt%3B%2Ffont%26gt%3B%22%20style%3D%22rounded%3D1%3BwhiteSpace%3Dwrap%3Bhtml%3D1%3BstrokeColor%3D%23330000%3BstrokeWidth%3D4%3BfillColor%3D%23333333%3BgradientColor%3Dnone%3BarcSize%3D42%3B%22%20vertex%3D%221%22%20parent%3D%221%22%3E%3CmxGeometry%20x%3D%22530%22%20y%3D%22260%22%20width%3D%22199%22%20height%3D%2290%22%20as%3D%22geometry%22%2F%3E%3C%2FmxCell%3E%3C%2Froot%3E%3C%2FmxGraphModel%3E&lt;/span&gt;" style="rounded=1;whiteSpace=wrap;html=1;strokeColor=#330000;strokeWidth=4;fillColor=#333333;gradientColor=none;arcSize=42;" parent="1" vertex="1">
          <mxGeometry x="431.5" y="420" width="199" height="90" as="geometry" />
        </mxCell>
        <mxCell id="WS7IrizcKd0_ZpTfdwMH-4" value="&lt;font color=&quot;#ffffff&quot; style=&quot;font-size: 23px&quot;&gt;Violation of integrity&lt;/font&gt;&lt;span style=&quot;font-family: monospace ; font-size: 0px&quot;&gt;%3CmxGraphModel%3E%3Croot%3E%3CmxCell%20id%3D%220%22%2F%3E%3CmxCell%20id%3D%221%22%20parent%3D%220%22%2F%3E%3CmxCell%20id%3D%222%22%20value%3D%22%26lt%3Bfont%20color%3D%26quot%3B%23ffffff%26quot%3B%20style%3D%26quot%3Bfont-size%3A%2023px%26quot%3B%26gt%3BViolation%20of%20availability%26lt%3B%2Ffont%26gt%3B%22%20style%3D%22rounded%3D1%3BwhiteSpace%3Dwrap%3Bhtml%3D1%3BstrokeColor%3D%23330000%3BstrokeWidth%3D4%3BfillColor%3D%23333333%3BgradientColor%3Dnone%3BarcSize%3D42%3B%22%20vertex%3D%221%22%20parent%3D%221%22%3E%3CmxGeometry%20x%3D%22530%22%20y%3D%22260%22%20width%3D%22199%22%20height%3D%2290%22%20as%3D%22geometry%22%2F%3E%3C%2FmxCell%3E%3C%2Froot%3E%3C%2FmxGraphModel%3E&lt;/span&gt;" style="rounded=1;whiteSpace=wrap;html=1;strokeColor=#330000;strokeWidth=4;fillColor=#333333;gradientColor=none;arcSize=42;" parent="1" vertex="1">
          <mxGeometry x="1027" y="420" width="200" height="90" as="geometry" />
        </mxCell>
        <mxCell id="WS7IrizcKd0_ZpTfdwMH-5" value="&lt;font color=&quot;#ffffff&quot; style=&quot;font-size: 23px&quot;&gt;Violation of accountability&lt;/font&gt;" style="rounded=1;whiteSpace=wrap;html=1;strokeColor=#330000;strokeWidth=4;fillColor=#333333;gradientColor=none;arcSize=42;" parent="1" vertex="1">
          <mxGeometry x="2138.5" y="400" width="199" height="90" as="geometry" />
        </mxCell>
        <mxCell id="WS7IrizcKd0_ZpTfdwMH-17" value="&lt;font color=&quot;#ffffff&quot;&gt;&lt;span style=&quot;font-size: 23px&quot;&gt;Hack partners account&lt;/span&gt;&lt;/font&gt;" style="rounded=1;whiteSpace=wrap;html=1;strokeColor=#330000;strokeWidth=4;fillColor=#333333;gradientColor=none;arcSize=42;" parent="1" vertex="1">
          <mxGeometry x="1924.5" y="625" width="190" height="90" as="geometry" />
        </mxCell>
        <mxCell id="WS7IrizcKd0_ZpTfdwMH-21" value="" style="endArrow=classic;html=1;strokeColor=#000000;strokeWidth=4;fontColor=#FFD966;exitX=1;exitY=0.25;exitDx=0;exitDy=0;entryX=0.25;entryY=1;entryDx=0;entryDy=0;" parent="1" source="WS7IrizcKd0_ZpTfdwMH-17" target="WS7IrizcKd0_ZpTfdwMH-5" edge="1">
          <mxGeometry width="50" height="50" relative="1" as="geometry">
            <mxPoint x="1752" y="499" as="sourcePoint" />
            <mxPoint x="2099.5" y="470" as="targetPoint" />
          </mxGeometry>
        </mxCell>
        <mxCell id="WS7IrizcKd0_ZpTfdwMH-22" value="" style="endArrow=classic;html=1;strokeColor=#000000;strokeWidth=4;fontColor=#FFD966;entryX=0.25;entryY=1;entryDx=0;entryDy=0;exitX=0.5;exitY=0;exitDx=0;exitDy=0;" parent="1" source="WS7IrizcKd0_ZpTfdwMH-18" target="WS7IrizcKd0_ZpTfdwMH-4" edge="1">
          <mxGeometry width="50" height="50" relative="1" as="geometry">
            <mxPoint x="582" y="665" as="sourcePoint" />
            <mxPoint x="646.75" y="555" as="targetPoint" />
          </mxGeometry>
        </mxCell>
        <mxCell id="WS7IrizcKd0_ZpTfdwMH-43" value="" style="endArrow=classic;html=1;strokeColor=#000000;strokeWidth=4;fontColor=#FFD966;exitX=0.5;exitY=0;exitDx=0;exitDy=0;entryX=0.5;entryY=1;entryDx=0;entryDy=0;" parent="1" source="WS7IrizcKd0_ZpTfdwMH-42" target="WS7IrizcKd0_ZpTfdwMH-5" edge="1">
          <mxGeometry width="50" height="50" relative="1" as="geometry">
            <mxPoint x="2403.5" y="430" as="sourcePoint" />
            <mxPoint x="2287.5" y="490" as="targetPoint" />
          </mxGeometry>
        </mxCell>
        <mxCell id="WS7IrizcKd0_ZpTfdwMH-46" value="" style="endArrow=classic;html=1;strokeColor=#000000;strokeWidth=4;fontColor=#FFD966;exitX=0.5;exitY=0;exitDx=0;exitDy=0;" parent="1" source="WS7IrizcKd0_ZpTfdwMH-19" target="WS7IrizcKd0_ZpTfdwMH-3" edge="1">
          <mxGeometry width="50" height="50" relative="1" as="geometry">
            <mxPoint x="1031" y="630" as="sourcePoint" />
            <mxPoint x="1036" y="530" as="targetPoint" />
          </mxGeometry>
        </mxCell>
        <mxCell id="WS7IrizcKd0_ZpTfdwMH-47" value="" style="endArrow=classic;html=1;strokeColor=#000000;strokeWidth=4;fontColor=#FFD966;exitX=0.5;exitY=0;exitDx=0;exitDy=0;entryX=0.632;entryY=1.002;entryDx=0;entryDy=0;entryPerimeter=0;" parent="1" source="WS7IrizcKd0_ZpTfdwMH-20" target="WS7IrizcKd0_ZpTfdwMH-3" edge="1">
          <mxGeometry width="50" height="50" relative="1" as="geometry">
            <mxPoint x="431" y="610" as="sourcePoint" />
            <mxPoint x="504.33333333333303" y="520" as="targetPoint" />
          </mxGeometry>
        </mxCell>
        <mxCell id="WS7IrizcKd0_ZpTfdwMH-48" value="&lt;font color=&quot;#ffffff&quot;&gt;&lt;span style=&quot;font-size: 23px&quot;&gt;Delete internal data&lt;/span&gt;&lt;/font&gt;" style="rounded=1;whiteSpace=wrap;html=1;strokeColor=#330000;strokeWidth=4;fillColor=#333333;gradientColor=none;arcSize=42;" parent="1" vertex="1">
          <mxGeometry x="1032" y="880" width="190" height="90" as="geometry" />
        </mxCell>
        <mxCell id="WS7IrizcKd0_ZpTfdwMH-49" value="" style="endArrow=classic;html=1;strokeColor=#000000;strokeWidth=4;fontColor=#FFD966;exitX=0.5;exitY=0;exitDx=0;exitDy=0;entryX=0.5;entryY=1;entryDx=0;entryDy=0;" parent="1" source="WS7IrizcKd0_ZpTfdwMH-48" target="WS7IrizcKd0_ZpTfdwMH-4" edge="1">
          <mxGeometry width="50" height="50" relative="1" as="geometry">
            <mxPoint x="942" y="655" as="sourcePoint" />
            <mxPoint x="1072" y="555" as="targetPoint" />
          </mxGeometry>
        </mxCell>
        <mxCell id="9C9STiDl3VXLeSe7z0o2-7" value="&lt;font style=&quot;font-size: 23px&quot;&gt;Install Backdoor&lt;/font&gt;" style="shape=hexagon;perimeter=hexagonPerimeter2;whiteSpace=wrap;html=1;fillColor=#333333;fontColor=#FFFFFF;rounded=0;strokeWidth=4;strokeColor=#330000;" parent="1" vertex="1">
          <mxGeometry x="556" y="800" width="187.5" height="120" as="geometry" />
        </mxCell>
        <mxCell id="9C9STiDl3VXLeSe7z0o2-8" value="/" style="endArrow=none;html=1;fontColor=#000000;exitX=0.5;exitY=0;exitDx=0;exitDy=0;entryX=0.5;entryY=1;entryDx=0;entryDy=0;strokeWidth=4;horizontal=0;fontSize=30;" parent="1" source="9C9STiDl3VXLeSe7z0o2-1" target="WS7IrizcKd0_ZpTfdwMH-19" edge="1">
          <mxGeometry width="50" height="50" relative="1" as="geometry">
            <mxPoint x="676" y="810" as="sourcePoint" />
            <mxPoint x="726" y="760" as="targetPoint" />
          </mxGeometry>
        </mxCell>
        <mxCell id="9C9STiDl3VXLeSe7z0o2-10" value="/" style="endArrow=none;html=1;fontColor=#000000;exitX=0.5;exitY=0;exitDx=0;exitDy=0;entryX=0.5;entryY=1;entryDx=0;entryDy=0;strokeWidth=4;horizontal=0;fontSize=30;" parent="1" source="9C9STiDl3VXLeSe7z0o2-7" target="WS7IrizcKd0_ZpTfdwMH-20" edge="1">
          <mxGeometry width="50" height="50" relative="1" as="geometry">
            <mxPoint x="429.75" y="810" as="sourcePoint" />
            <mxPoint x="431" y="700" as="targetPoint" />
          </mxGeometry>
        </mxCell>
        <mxCell id="9C9STiDl3VXLeSe7z0o2-14" value="&lt;font style=&quot;font-size: 20px&quot;&gt;Install Malware/Keylogger&lt;/font&gt;" style="shape=hexagon;perimeter=hexagonPerimeter2;whiteSpace=wrap;html=1;fillColor=#333333;fontColor=#FFFFFF;rounded=0;strokeWidth=4;strokeColor=#330000;horizontal=1;verticalAlign=middle;labelPosition=center;verticalLabelPosition=middle;align=center;" parent="1" vertex="1">
          <mxGeometry x="1920" y="840" width="197.5" height="110" as="geometry" />
        </mxCell>
        <mxCell id="9C9STiDl3VXLeSe7z0o2-15" value="/" style="endArrow=none;html=1;fontColor=#000000;exitX=0.5;exitY=0;exitDx=0;exitDy=0;strokeWidth=4;horizontal=0;fontSize=30;entryX=0.5;entryY=1;entryDx=0;entryDy=0;" parent="1" source="9C9STiDl3VXLeSe7z0o2-14" target="WS7IrizcKd0_ZpTfdwMH-17" edge="1">
          <mxGeometry width="50" height="50" relative="1" as="geometry">
            <mxPoint x="1126.25" y="770" as="sourcePoint" />
            <mxPoint x="1127.5" y="660" as="targetPoint" />
          </mxGeometry>
        </mxCell>
        <mxCell id="QCyph_HzEFhPEeC0YI5Y-4" value="&lt;font color=&quot;#ffffff&quot; style=&quot;font-size: 23px&quot;&gt;Violation of availability&lt;/font&gt;&lt;span style=&quot;font-family: monospace ; font-size: 0px&quot;&gt;3CmxGraphModel%3E%3Croot%3E%3CmxCell%20id%3D%220%22%2F%3E%3CmxCell%20id%3D%221%22%20parent%3D%220%22%2F%3E%3CmxCell%20id%3D%222%22%20value%3D%22%26lt%3Bfont%20color%3D%26quot%3B%23ffffff%26quot%3B%20style%3D%26quot%3Bfont-size%3A%2023px%26quot%3B%26gt%3BViolation%20of%20availability%26lt%3B%2Ffont%26gt%3B%22%20style%3D%22rounded%3D1%3BwhiteSpace%3Dwrap%3Bhtml%3D1%3BstrokeColor%3D%23330000%3BstrokeWidth%3D4%3BfillColor%3D%23333333%3BgradientColor%3Dnone%3BarcSize%3D42%3B%22%20vertex%3D%221%22%20parent%3D%221%22%3E%3CmxGeometry%20x%3D%22530%22%20y%3D%22260%22%20width%3D%22199%22%20height%3D%2290%22%20as%3D%22geometry%22%2F%3E%3C%2FmxCell%3E%3C%2Froot%3E%3C%2FmxGraphModel%3E&lt;/span&gt;" style="rounded=1;whiteSpace=wrap;html=1;strokeColor=#330000;strokeWidth=4;fillColor=#333333;gradientColor=none;arcSize=42;" parent="1" vertex="1">
          <mxGeometry x="1406" y="390" width="199" height="90" as="geometry" />
        </mxCell>
        <mxCell id="QCyph_HzEFhPEeC0YI5Y-5" value="&lt;font color=&quot;#ffffff&quot; style=&quot;font-size: 23px&quot;&gt;Violation of&amp;nbsp; authenticity&lt;/font&gt;&lt;span style=&quot;font-family: monospace ; font-size: 0px&quot;&gt;%3E%3Croot%3E%3CmxCell%20id%3D%220%22%2F%3E%3CmxCell%20id%3D%221%22%20parent%3D%220%22%2F%3E%3CmxCell%20id%3D%222%22%20value%3D%22%26lt%3Bfont%20color%3D%26quot%3B%23ffffff%26quot%3B%20style%3D%26quot%3Bfont-size%3A%2023px%26quot%3B%26gt%3BViolation%20of%20availability%26lt%3B%2Ffont%26gt%3B%22%20style%3D%22rounded%3D1%3BwhiteSpace%3Dwrap%3Bhtml%3D1%3BstrokeColor%3D%23330000%3BstrokeWidth%3D4%3BfillColor%3D%23333333%3BgradientColor%3Dnone%3BarcSize%3D42%3B%22%20vertex%3D%221%22%20parent%3D%221%22%3E%3CmxGeometry%20x%3D%22530%22%20y%3D%22260%22%20width%3D%22199%22%20height%3D%2290%22%20as%3D%22geometry%22%2F%3E%3C%2FmxCell%3E%3C%2Froot%3E%3C%2FmxGraphModel%3E&lt;/span&gt;" style="rounded=1;whiteSpace=wrap;html=1;strokeColor=#330000;strokeWidth=4;fillColor=#333333;gradientColor=none;arcSize=42;" parent="1" vertex="1">
          <mxGeometry x="1676" y="400" width="199" height="90" as="geometry" />
        </mxCell>
        <mxCell id="QCyph_HzEFhPEeC0YI5Y-6" value="&lt;font color=&quot;#ffffff&quot; style=&quot;font-size: 23px&quot;&gt;Violation of&amp;nbsp; assurance&lt;/font&gt;" style="rounded=1;whiteSpace=wrap;html=1;strokeColor=#330000;strokeWidth=4;fillColor=#333333;gradientColor=none;arcSize=42;" parent="1" vertex="1">
          <mxGeometry x="1920" y="400" width="199" height="90" as="geometry" />
        </mxCell>
        <mxCell id="QCyph_HzEFhPEeC0YI5Y-7" value="" style="endArrow=classic;html=1;strokeColor=#000000;strokeWidth=4;fontColor=#FFD966;exitX=0.5;exitY=0;exitDx=0;exitDy=0;entryX=0.5;entryY=1;entryDx=0;entryDy=0;" parent="1" source="WS7IrizcKd0_ZpTfdwMH-17" target="QCyph_HzEFhPEeC0YI5Y-6" edge="1">
          <mxGeometry width="50" height="50" relative="1" as="geometry">
            <mxPoint x="2227.5" y="570" as="sourcePoint" />
            <mxPoint x="2119.4120000000003" y="479.82000000000016" as="targetPoint" />
          </mxGeometry>
        </mxCell>
        <mxCell id="QCyph_HzEFhPEeC0YI5Y-9" value="" style="endArrow=classic;html=1;strokeColor=#000000;strokeWidth=4;fontColor=#FFD966;exitX=0.25;exitY=0;exitDx=0;exitDy=0;entryX=1;entryY=0.75;entryDx=0;entryDy=0;" parent="1" source="WS7IrizcKd0_ZpTfdwMH-17" target="QCyph_HzEFhPEeC0YI5Y-5" edge="1">
          <mxGeometry width="50" height="50" relative="1" as="geometry">
            <mxPoint x="2336.5" y="570" as="sourcePoint" />
            <mxPoint x="2463.5" y="480" as="targetPoint" />
          </mxGeometry>
        </mxCell>
        <mxCell id="QCyph_HzEFhPEeC0YI5Y-10" value="&lt;font color=&quot;#ffffff&quot;&gt;&lt;span style=&quot;font-size: 23px&quot;&gt;System shoutdown&lt;/span&gt;&lt;/font&gt;" style="rounded=1;whiteSpace=wrap;html=1;strokeColor=#330000;strokeWidth=4;fillColor=#333333;gradientColor=none;arcSize=42;" parent="1" vertex="1">
          <mxGeometry x="1415" y="720" width="190" height="90" as="geometry" />
        </mxCell>
        <mxCell id="QCyph_HzEFhPEeC0YI5Y-11" value="" style="endArrow=classic;html=1;strokeColor=#000000;strokeWidth=4;fontColor=#FFD966;exitX=0.5;exitY=0;exitDx=0;exitDy=0;entryX=0.5;entryY=1;entryDx=0;entryDy=0;" parent="1" source="QCyph_HzEFhPEeC0YI5Y-10" target="QCyph_HzEFhPEeC0YI5Y-4" edge="1">
          <mxGeometry width="50" height="50" relative="1" as="geometry">
            <mxPoint x="1982" y="580" as="sourcePoint" />
            <mxPoint x="2055.3333333333335" y="490" as="targetPoint" />
          </mxGeometry>
        </mxCell>
        <mxCell id="K4ghPMKC46GjGETFL4yl-2" value="" style="endArrow=classic;html=1;strokeColor=#000000;strokeWidth=4;fontColor=#FFD966;exitX=0.5;exitY=0;exitDx=0;exitDy=0;entryX=0.75;entryY=1;entryDx=0;entryDy=0;" parent="1" source="K4ghPMKC46GjGETFL4yl-1" target="WS7IrizcKd0_ZpTfdwMH-4" edge="1">
          <mxGeometry width="50" height="50" relative="1" as="geometry">
            <mxPoint x="1144.5900000000001" y="655.1800000000001" as="sourcePoint" />
            <mxPoint x="1079.6" y="566.0800000000002" as="targetPoint" />
          </mxGeometry>
        </mxCell>
        <mxCell id="DzI30T0Dioqzd7qEBnDI-1" value="&lt;font color=&quot;#ffffff&quot;&gt;&lt;span style=&quot;font-size: 23px&quot;&gt;Malware&lt;br&gt;&lt;/span&gt;&lt;/font&gt;" style="rounded=1;whiteSpace=wrap;html=1;strokeColor=#330000;strokeWidth=4;fillColor=#333333;gradientColor=none;arcSize=42;" parent="1" vertex="1">
          <mxGeometry x="1240" y="574" width="190" height="90" as="geometry" />
        </mxCell>
        <mxCell id="DzI30T0Dioqzd7qEBnDI-2" value="&lt;span style=&quot;color: rgb(255 , 255 , 255) ; font-size: 23px&quot;&gt;Ransomware&lt;/span&gt;&lt;font color=&quot;#ffffff&quot;&gt;&lt;span style=&quot;font-size: 23px&quot;&gt;&lt;br&gt;&lt;/span&gt;&lt;/font&gt;" style="rounded=1;whiteSpace=wrap;html=1;strokeColor=#330000;strokeWidth=4;fillColor=#333333;gradientColor=none;arcSize=42;" parent="1" vertex="1">
          <mxGeometry x="1616" y="625" width="190" height="90" as="geometry" />
        </mxCell>
        <mxCell id="DzI30T0Dioqzd7qEBnDI-3" value="&lt;span style=&quot;color: rgb(255 , 255 , 255) ; font-size: 23px&quot;&gt;Phishing&lt;/span&gt;&lt;font color=&quot;#ffffff&quot;&gt;&lt;span style=&quot;font-size: 23px&quot;&gt;&lt;br&gt;&lt;/span&gt;&lt;/font&gt;" style="rounded=1;whiteSpace=wrap;html=1;strokeColor=#330000;strokeWidth=4;fillColor=#333333;gradientColor=none;arcSize=42;" parent="1" vertex="1">
          <mxGeometry x="100" y="620" width="190" height="90" as="geometry" />
        </mxCell>
        <mxCell id="DzI30T0Dioqzd7qEBnDI-4" value="" style="endArrow=classic;html=1;strokeColor=#000000;strokeWidth=4;fontColor=#FFD966;entryX=0.25;entryY=1;entryDx=0;entryDy=0;exitX=0.75;exitY=0;exitDx=0;exitDy=0;" parent="1" source="DzI30T0Dioqzd7qEBnDI-1" target="QCyph_HzEFhPEeC0YI5Y-4" edge="1">
          <mxGeometry width="50" height="50" relative="1" as="geometry">
            <mxPoint x="1411" y="615" as="sourcePoint" />
            <mxPoint x="1531" y="617.5" as="targetPoint" />
          </mxGeometry>
        </mxCell>
        <mxCell id="DzI30T0Dioqzd7qEBnDI-5" value="" style="endArrow=classic;html=1;strokeColor=#000000;strokeWidth=4;fontColor=#FFD966;entryX=1;entryY=0.75;entryDx=0;entryDy=0;exitX=0.25;exitY=0;exitDx=0;exitDy=0;" parent="1" source="DzI30T0Dioqzd7qEBnDI-1" target="WS7IrizcKd0_ZpTfdwMH-4" edge="1">
          <mxGeometry width="50" height="50" relative="1" as="geometry">
            <mxPoint x="1324.5" y="625" as="sourcePoint" />
            <mxPoint x="1537" y="480" as="targetPoint" />
          </mxGeometry>
        </mxCell>
        <mxCell id="DzI30T0Dioqzd7qEBnDI-6" value="" style="endArrow=classic;html=1;strokeColor=#000000;strokeWidth=4;fontColor=#FFD966;entryX=0.25;entryY=1;entryDx=0;entryDy=0;exitX=1;exitY=0.25;exitDx=0;exitDy=0;" parent="1" source="DzI30T0Dioqzd7qEBnDI-1" target="QCyph_HzEFhPEeC0YI5Y-5" edge="1">
          <mxGeometry width="50" height="50" relative="1" as="geometry">
            <mxPoint x="1188.5" y="1030" as="sourcePoint" />
            <mxPoint x="1392" y="480" as="targetPoint" />
          </mxGeometry>
        </mxCell>
        <mxCell id="DzI30T0Dioqzd7qEBnDI-7" value="" style="endArrow=classic;html=1;strokeColor=#000000;strokeWidth=4;fontColor=#FFD966;exitX=0;exitY=0.25;exitDx=0;exitDy=0;" parent="1" source="DzI30T0Dioqzd7qEBnDI-2" target="QCyph_HzEFhPEeC0YI5Y-4" edge="1">
          <mxGeometry width="50" height="50" relative="1" as="geometry">
            <mxPoint x="1054.0500000000002" y="1026.0300000000002" as="sourcePoint" />
            <mxPoint x="504.25" y="480" as="targetPoint" />
          </mxGeometry>
        </mxCell>
        <mxCell id="DzI30T0Dioqzd7qEBnDI-8" value="" style="endArrow=classic;html=1;strokeColor=#000000;strokeWidth=4;fontColor=#FFD966;exitX=0.75;exitY=0;exitDx=0;exitDy=0;entryX=0.415;entryY=1;entryDx=0;entryDy=0;entryPerimeter=0;" parent="1" source="DzI30T0Dioqzd7qEBnDI-2" target="QCyph_HzEFhPEeC0YI5Y-5" edge="1">
          <mxGeometry width="50" height="50" relative="1" as="geometry">
            <mxPoint x="1476" y="1062.5" as="sourcePoint" />
            <mxPoint x="554" y="435" as="targetPoint" />
          </mxGeometry>
        </mxCell>
        <mxCell id="WS7IrizcKd0_ZpTfdwMH-42" value="&lt;span style=&quot;font-size: 23px&quot;&gt;&lt;font color=&quot;#ffffff&quot;&gt;Vertical&lt;br&gt;privilege escalation&lt;/font&gt;&lt;/span&gt;" style="rounded=1;whiteSpace=wrap;html=1;strokeColor=#330000;strokeWidth=4;fillColor=#333333;gradientColor=none;arcSize=42;" parent="1" vertex="1">
          <mxGeometry x="2143" y="630" width="190" height="90" as="geometry" />
        </mxCell>
        <mxCell id="WS7IrizcKd0_ZpTfdwMH-19" value="&lt;font color=&quot;#ffffff&quot;&gt;&lt;span style=&quot;font-size: 23px&quot;&gt;Expose internal data&lt;/span&gt;&lt;/font&gt;" style="rounded=1;whiteSpace=wrap;html=1;strokeColor=#330000;strokeWidth=4;fillColor=#333333;gradientColor=none;arcSize=42;" parent="1" vertex="1">
          <mxGeometry x="326" y="600" width="190" height="90" as="geometry" />
        </mxCell>
        <mxCell id="9C9STiDl3VXLeSe7z0o2-1" value="&lt;font style=&quot;font-size: 23px&quot;&gt;Download data&lt;/font&gt;" style="shape=hexagon;perimeter=hexagonPerimeter2;whiteSpace=wrap;html=1;fillColor=#333333;fontColor=#FFFFFF;rounded=0;strokeWidth=4;strokeColor=#330000;" parent="1" vertex="1">
          <mxGeometry x="326" y="800" width="187.5" height="120" as="geometry" />
        </mxCell>
        <mxCell id="DzI30T0Dioqzd7qEBnDI-9" value="" style="endArrow=classic;html=1;strokeColor=#000000;strokeWidth=4;fontColor=#FFD966;entryX=0;entryY=0.75;entryDx=0;entryDy=0;exitX=0.5;exitY=0;exitDx=0;exitDy=0;" parent="1" source="DzI30T0Dioqzd7qEBnDI-3" target="WS7IrizcKd0_ZpTfdwMH-3" edge="1">
          <mxGeometry width="50" height="50" relative="1" as="geometry">
            <mxPoint x="2056" y="830" as="sourcePoint" />
            <mxPoint x="2244" y="510" as="targetPoint" />
          </mxGeometry>
        </mxCell>
        <mxCell id="WS7IrizcKd0_ZpTfdwMH-18" value="&lt;font color=&quot;#ffffff&quot;&gt;&lt;span style=&quot;font-size: 23px&quot;&gt;Change internal data&lt;/span&gt;&lt;/font&gt;" style="rounded=1;whiteSpace=wrap;html=1;strokeColor=#330000;strokeWidth=4;fillColor=#333333;gradientColor=none;arcSize=42;" parent="1" vertex="1">
          <mxGeometry x="907" y="740" width="190" height="90" as="geometry" />
        </mxCell>
        <mxCell id="WS7IrizcKd0_ZpTfdwMH-20" value="&lt;font color=&quot;#ffffff&quot;&gt;&lt;span style=&quot;font-size: 23px&quot;&gt;Expose internal servers&lt;/span&gt;&lt;/font&gt;" style="rounded=1;whiteSpace=wrap;html=1;strokeColor=#330000;strokeWidth=4;fillColor=#333333;gradientColor=none;arcSize=42;" parent="1" vertex="1">
          <mxGeometry x="556" y="600" width="190" height="90" as="geometry" />
        </mxCell>
        <mxCell id="K4ghPMKC46GjGETFL4yl-1" value="&lt;font color=&quot;#ffffff&quot;&gt;&lt;span style=&quot;font-size: 23px&quot;&gt;33% attack&lt;/span&gt;&lt;/font&gt;" style="rounded=1;whiteSpace=wrap;html=1;strokeColor=#330000;strokeWidth=4;fillColor=#333333;gradientColor=none;arcSize=42;" parent="1" vertex="1">
          <mxGeometry x="1147" y="750" width="190" height="90" as="geometry" />
        </mxCell>
        <mxCell id="t7LMNGrEGb3Xl03q0igA-1" value="&lt;font color=&quot;#ffffff&quot;&gt;&lt;span style=&quot;font-size: 23px&quot;&gt;SQL injection&lt;br&gt;&lt;/span&gt;&lt;/font&gt;" style="rounded=1;whiteSpace=wrap;html=1;strokeColor=#330000;strokeWidth=4;fillColor=#333333;gradientColor=none;arcSize=42;" parent="1" vertex="1">
          <mxGeometry x="806" y="590" width="190" height="90" as="geometry" />
        </mxCell>
        <mxCell id="t7LMNGrEGb3Xl03q0igA-2" value="" style="endArrow=classic;html=1;strokeColor=#000000;strokeWidth=4;fontColor=#FFD966;exitX=0.75;exitY=0;exitDx=0;exitDy=0;entryX=0;entryY=0.5;entryDx=0;entryDy=0;" parent="1" source="t7LMNGrEGb3Xl03q0igA-1" target="WS7IrizcKd0_ZpTfdwMH-4" edge="1">
          <mxGeometry width="50" height="50" relative="1" as="geometry">
            <mxPoint x="936.9999999999995" y="612.5" as="sourcePoint" />
            <mxPoint x="857" y="380" as="targetPoint" />
          </mxGeometry>
        </mxCell>
        <mxCell id="t7LMNGrEGb3Xl03q0igA-3" value="" style="endArrow=classic;html=1;strokeColor=#000000;strokeWidth=4;fontColor=#FFD966;entryX=1;entryY=0.5;entryDx=0;entryDy=0;exitX=0;exitY=0.25;exitDx=0;exitDy=0;" parent="1" source="t7LMNGrEGb3Xl03q0igA-1" target="WS7IrizcKd0_ZpTfdwMH-3" edge="1">
          <mxGeometry width="50" height="50" relative="1" as="geometry">
            <mxPoint x="986" y="1155" as="sourcePoint" />
            <mxPoint x="1606" y="1050" as="targetPoint" />
          </mxGeometry>
        </mxCell>
      </root>
    </mxGraphModel>
  </diagram>
</mxfile>
